<svg xmlns="http://www.w3.org/2000/svg" xmlns:xlink="http://www.w3.org/1999/xlink" viewBox="0 0 500 500"><defs><style>.cls-1,.cls-16,.cls-18{fill:none;}.cls-2{fill:#fff;}.cls-3{opacity:0.4;}.cls-4{fill:#a5b7c6;}.cls-5{fill:#fdf0e6;}.cls-6{fill:#fdc4a6;}.cls-7{opacity:0.3;}.cls-8{fill:#be937d;}.cls-9{fill:#06cafe;}.cls-10{fill:#c135d4;}.cls-11{fill:#eb97f7;}.cls-12{fill:#27416b;}.cls-13{fill:#0086a4;}.cls-14{fill:#00657b;}.cls-15{clip-path:url(#clip-path);}.cls-16{stroke:#a5b7c6;stroke-width:0.88px;}.cls-16,.cls-18{stroke-miterlimit:10;}.cls-17{fill:#34578f;}.cls-18{stroke:#0086a4;stroke-width:6.79px;}.cls-19{opacity:0.5;}</style><clipPath id="clip-path" transform="translate(0 0)"><path class="cls-1" d="M223.73,30.55c-39.52-13-56.28,55.49-15.11,57.69,14.15.76,22-6.25,27.28-19,9.83-23.85-2.48-35.64-12.17-38.65"/></clipPath></defs><g id="BACKGROUND"><rect class="cls-2" width="500" height="500"/></g><g id="OBJECTS"><g class="cls-3"><path class="cls-4" d="M255,427c-78.12,1.23-156-7.29-156,15,0,18.5,116,12,130,12,44,0,70.62.5,134-2,14.32-.56,38.6-1.5,38-13-.71-13.91-28-12-36-13-33-2-78,1-110,1" transform="translate(0 0)"/></g><path class="cls-5" d="M276.16,66.19C199,54.12,100.87,96.73,91.23,196.52,81,302.37,138.28,376.24,225.54,383.38c94.26,7.72,188.21-47.45,184.29-152.94C406.41,138.07,362.5,75.69,277.05,66.19" transform="translate(0 0)"/><path class="cls-2" d="M417.43,233.36c-7.55-4.4-17.61-4.4-24.53,1.26C386,240.91,388.5,247.83,386,256c-14.46-18.24-35.85-.63-27.67,18.86-18.87-9.43-42.77,13.84-20.13,23.9,11.95,5.66,32.08,4.41,44.66,5,13.2.62,26.41,0,39,0" transform="translate(0 0)"/><path class="cls-2" d="M83.46,199.37c6.92-8.8,15.73-12.58,25.79-8.18,10.69,5,10.06,14.47,10.06,23.9,3.77-2.51,10.69-4.4,14.47-1.25,4.4,3.77,3.14,12.58,3.14,12.58,6.08,1.27,18.87-.63,21.38,12.57,3.78,22-61,13.21-74.84,13.21" transform="translate(0 0)"/><path class="cls-6" d="M274.7,249.69c3.59,43.07,3.76,98,3.76,98-4.13,14.1-13.16,55.46-14.95,69.78-1.21,9.66-11.94,9.12-13.54,3.46-5.53-19.67,2-64.72,8.76-75.82,0,0-7.52-22-10-32.34-5.13-21.08-7.45-47.43-4.66-69.77" transform="translate(0 0)"/><path class="cls-6" d="M229.57,242.51c-24.5,16-22.41,68.28-32.4,92.15,0,0-32.81-6-47.13-4.52a60.68,60.68,0,0,1-2.65,10.56c13.5,12.2,57.37,18.84,63.49,11.36,0,0,32.85-33.48,47.27-113.68Z" transform="translate(0 0)"/><g class="cls-7"><path class="cls-8" d="M254.56,389.37c.73-6.23,1.51-12.5,2.77-18.65a114.57,114.57,0,0,1,5.57-17.66c1.22-3.23,2-6.21.76-9.59a78.89,78.89,0,0,1-2.48-8.94c-1.51-6.69-3.05-13.38-4.79-20-1.41-5.39-3.14-19.65-10.93-18.25.89,5.72,2,11.26,3.25,16.47,2.5,10.3,10,32.34,10,32.34-6.72,11.1-14.29,56.15-8.76,75.82a5.41,5.41,0,0,0,3,3.4A313.29,313.29,0,0,1,254.56,389.37Z" transform="translate(0 0)"/></g><g class="cls-7"><path class="cls-8" d="M196.4,351.44c-5.67-4.6-12.2-5.82-19.1-7.5-9.51-2.33-18.91-5.61-28.45-8.06a41.71,41.71,0,0,1-1.46,4.82c10.32,9.33,38.38,15.4,53.76,14.41C199.52,354,198,352.71,196.4,351.44Z" transform="translate(0 0)"/></g><path class="cls-9" d="M265.87,417.18c-.83,6.45,3.32,15.26-7.13,15.41-14.36.21-12.75-9-11.93-15.45" transform="translate(0 0)"/><path class="cls-10" d="M244.75,423.61c10.49,9,17.12-3.35,22.41-.64,2.95,7.72,22.35,6.1,25.09,16.86.5,5.66-31.55,4.7-39.69,3.78-13.15-1.34-9.49-5.64-7.81-20" transform="translate(0 0)"/><path class="cls-11" d="M270.87,435.19c4,.75,6-1.19,8.48-3.91.28-.31.56-.6.85-.87-5.69-2-11.52-3.48-13-7.44-2-1-4.2.11-6.73,1.42C262.06,429.12,266.06,434.28,270.87,435.19Z" transform="translate(0 0)"/><path class="cls-11" d="M252.31,433.38c-2.43-2-5.61-2.25-8.66-2.28-1.37,8.47-1.6,11.44,8.91,12.51l2,.18C254.8,440.13,255.19,435.8,252.31,433.38Z" transform="translate(0 0)"/><path class="cls-12" d="M268,441c-5.16,0-11.78-.05-16.81-1.3a26.48,26.48,0,0,1-8.2-3.56c-.85,7.52,1.5,7.58,9.56,8.4s40.75,1.23,39.69-4.75a7.49,7.49,0,0,0-.75-2.43C284.38,441.13,275.87,441.07,268,441Z" transform="translate(0 0)"/><path class="cls-12" d="M270.67,425l-3.48,3.16c-1.37,1.24.66,3.26,2,2l3.48-3.15c1.37-1.25-.66-3.26-2-2Z" transform="translate(0 0)"/><path class="cls-12" d="M275.42,427.2l-2.89,3.05c-1.27,1.34.75,3.37,2,2l2.89-3c1.27-1.34-.75-3.37-2-2Z" transform="translate(0 0)"/><path class="cls-12" d="M244.71,424.46c1.62,2.8,4.91,3.3,7.9,3.38,5.1.14,8.78-4.6,13.62-4.21,1.84.15,1.83-2.71,0-2.86-3.12-.25-5.46,1.17-8.09,2.71s-9,2.92-11-.46a1.43,1.43,0,0,0-2.47,1.44Z" transform="translate(0 0)"/><path class="cls-12" d="M267.4,422.89c.12-1.42.26-6.45,2.27-6.56a1.13,1.13,0,0,1,1.15,1.43,5.52,5.52,0,0,1-1.47,2.11,27.25,27.25,0,0,1-3,2.59c-.57.45.15,1.24.73,1,1.77-.87,4.42-2.25,6.43-1.85.54.11.56.94.15,1.22a4.33,4.33,0,0,1-2.37.28,17,17,0,0,1-4.35-.76c-.75-.23-1.07.94-.32,1.17,1.77.57,10,2.21,8.39-2.1-1-2.79-6.93.2-8.54,1,.25.31.49.63.74.95,1.62-1.29,7.88-6.41,3.25-8-3.7-1.3-4.11,5.42-4.29,7.61-.06.78,1.15.77,1.21,0Z" transform="translate(0 0)"/><path class="cls-9" d="M149,345.64c-6-2.47-15.59-.74-13-10.88,3.52-13.93,12-10,18-7.52" transform="translate(0 0)"/><path class="cls-10" d="M148.23,323.58c-11.39,7.8-1.2,17.4-5.19,21.81-8.21.85-11.67,20-22.77,19.87-5.6-1,3.62-31.69,6.62-39.32,4.69-12.36,7.9-7.71,21.34-2.36" transform="translate(0 0)"/><path class="cls-11" d="M130.29,345.81c-1.76,3.65-.41,6.11,1.58,9.2.22.35.43.7.62,1.05,3.38-5,6.34-10.24,10.55-10.67,1.52-1.67,1-4.09.37-6.87C138.43,338.86,132.41,341.39,130.29,345.81Z" transform="translate(0 0)"/><path class="cls-11" d="M136.84,328.34c2.59-1.81,3.62-4.83,4.44-7.77-7.83-3.52-10.64-4.5-14.39,5.37-.2.52-.44,1.15-.69,1.87C129.67,329,133.75,330.5,136.84,328.34Z" transform="translate(0 0)"/><path class="cls-12" d="M125.38,341.53c1.35-5,3.09-11.37,5.6-15.9a26.42,26.42,0,0,1,5.56-7c-7-2.77-7.71-.51-10.58,7.06s-11.74,39.05-5.69,39.57a7.35,7.35,0,0,0,2.53-.1C121.05,357.32,123.31,349.12,125.38,341.53Z" transform="translate(0 0)"/><path class="cls-12" d="M140.18,348.25,138,344.07c-.84-1.64-3.31-.2-2.47,1.44l2.15,4.18c.84,1.64,3.31.19,2.47-1.44Z" transform="translate(0 0)"/><path class="cls-12" d="M136.82,352.26l-2.2-3.58c-1-1.57-3.44-.13-2.47,1.44.73,1.2,1.46,2.39,2.2,3.58,1,1.57,3.44.13,2.47-1.44Z" transform="translate(0 0)"/><path class="cls-12" d="M147.42,323.31c-3.12.85-4.46,3.89-5.31,6.75-1.46,4.9,2.13,9.63.54,14.25-.6,1.75,2.16,2.49,2.76.76,1.12-3.28.08-6.17-.74-9.41-.7-2.77.21-8.7,3.51-9.59a1.43,1.43,0,0,0-.76-2.76Z" transform="translate(0 0)"/><path class="cls-12" d="M143.06,345.64c1.27.46,7.14,2.4,5.43,4.41s-4.26-4.17-4.75-5.3c-.29-.67-1.23-.17-1.11.47.39,1.93,1,4.75.16,6.62-.25.55-.7.34-1.12.1s.05-2,.16-2.39a17.06,17.06,0,0,1,1.91-4.19c.42-.66-.63-1.27-1.05-.61a15.51,15.51,0,0,0-2.34,5.87c-.21,1.57.66,3.14,2.47,2.73,2.66-.58,1.33-6.73,1-8.46l-1.11.47c.92,2.1,3.81,8.9,6.84,5.33,2.65-3.12-4.22-5.53-6.15-6.22-.74-.26-1,.91-.32,1.17Z" transform="translate(0 0)"/><path class="cls-13" d="M221.77,251.56c-13.9,6.62-17.71,34.24-19,47.49a54.94,54.94,0,0,0,16.74,6.83c5.34,1.19,16.37,1.78,21,.65,0,0,.93-7.35,3.23-7.11,2.55-.37,2.3,6.75,2.3,6.75,5,.4,27.65-.33,34.56-2.23,0,0,0-.64-.32-6.79-1-14.87-2.27-26.51-5.5-41.06" transform="translate(0 0)"/><path class="cls-9" d="M201.67,301.15c12.33,6.19,24.93,7.17,38.57,7.24,3.13,0,3.13-4.83,0-4.85-12.68-.06-24.62-.81-36.12-6.58-2.78-1.4-5.24,2.78-2.45,4.19Z" transform="translate(0 0)"/><path class="cls-9" d="M245.7,308a110.12,110.12,0,0,0,18.43,0c5.43-.42,11.62-.69,16.89-2,3-.77,1.75-5.45-1.29-4.68-5.34,1.36-11.7,1.56-17.21,2a100.5,100.5,0,0,1-16.82-.12c-3.12-.29-3.09,4.56,0,4.85Z" transform="translate(0 0)"/><path class="cls-9" d="M221.14,258.13c-10.45,10-13.5,28.42-13.63,42.26a.61.61,0,0,0,1.21,0c.13-13.45,3.13-31.72,13.28-41.4.57-.55-.29-1.4-.86-.86Z" transform="translate(0 0)"/><path class="cls-9" d="M224.54,259.7c-4.41,4.73-6.65,11.65-8.65,17.65-2.6,7.78-4.58,16.13-4.5,24.37a.61.61,0,0,0,1.21,0c-.07-7.73,1.78-15.39,4-22.73,1.9-6.21,4.23-13.57,8.76-18.43.53-.57-.33-1.43-.86-.86Z" transform="translate(0 0)"/><path class="cls-9" d="M227.47,260.8c-6.35,13.19-11.08,27.31-12.81,41.89-.09.78,1.12.77,1.21,0,1.71-14.34,6.4-28.3,12.65-41.28.34-.7-.71-1.32-1.05-.61Z" transform="translate(0 0)"/><path class="cls-14" d="M263.43,273.16s-.33.32-.92.85-1.43,1.29-2.53,2.1c-.54.41-1.13.86-1.77,1.31s-1.33.9-2.06,1.35-1.46.94-2.28,1.33l-2.43,1.24-2.54,1a20.07,20.07,0,0,1-2.53.81,19.1,19.1,0,0,1-2.41.58c-.78.14-1.52.23-2.2.32-.34,0-.67.11-1,.12h-.89c-.56,0-1,0-1.45,0-.79,0-1.24-.05-1.24-.05s.44-.14,1.21-.34c.38-.1.84-.22,1.37-.34a13.44,13.44,0,0,0,1.76-.48c.64-.21,1.33-.42,2.06-.63s1.46-.55,2.24-.81,1.58-.56,2.38-.93l2.42-1c1.59-.78,3.2-1.51,4.67-2.3.73-.4,1.48-.71,2.15-1.09s1.32-.7,1.92-1c1.2-.6,2.2-1.15,2.92-1.49S263.43,273.16,263.43,273.16Z" transform="translate(0 0)"/><path class="cls-14" d="M262.82,282.31a20.16,20.16,0,0,1-2.25,1.5c-.35.2-.72.42-1.13.63s-.79.5-1.22.73c-.83.5-1.73,1-2.66,1.47s-1.89,1-2.8,1.36a19.94,19.94,0,0,1-2.57,1,19.69,19.69,0,0,1-2.62.66A20.56,20.56,0,0,1,249.7,288c.33-.23.68-.47,1.07-.71s.77-.52,1.2-.77c.84-.53,1.75-1.06,2.68-1.56s2-.94,2.9-1.32a9.11,9.11,0,0,1,1.36-.51c.44-.13.86-.23,1.25-.32A19,19,0,0,1,262.82,282.31Z" transform="translate(0 0)"/><g class="cls-15"><line class="cls-16" x1="226.55" y1="30.47" x2="197.24" y2="87.46"/><line class="cls-16" x1="230.77" y1="31.78" x2="201.46" y2="88.78"/><line class="cls-16" x1="234.99" y1="33.09" x2="205.68" y2="90.09"/><line class="cls-16" x1="239.21" y1="34.41" x2="209.9" y2="91.4"/><line class="cls-16" x1="209.67" y1="25.21" x2="180.36" y2="82.21"/><line class="cls-16" x1="213.89" y1="26.53" x2="184.58" y2="83.52"/><line class="cls-16" x1="205.45" y1="23.9" x2="176.14" y2="80.89"/><line class="cls-16" x1="218.11" y1="27.84" x2="188.8" y2="84.83"/><line class="cls-16" x1="222.33" y1="29.15" x2="193.02" y2="86.15"/><line class="cls-16" x1="243.43" y1="35.72" x2="214.11" y2="92.72"/><line class="cls-16" x1="247.64" y1="37.04" x2="218.33" y2="94.03"/><line class="cls-16" x1="240.39" y1="73.62" x2="183.4" y2="44.31"/><line class="cls-16" x1="239.08" y1="77.84" x2="182.08" y2="48.53"/><line class="cls-16" x1="237.76" y1="82.06" x2="180.77" y2="52.75"/><line class="cls-16" x1="236.45" y1="86.28" x2="179.45" y2="56.96"/><line class="cls-16" x1="245.65" y1="56.74" x2="188.65" y2="27.43"/><line class="cls-16" x1="244.33" y1="60.96" x2="187.34" y2="31.65"/><line class="cls-16" x1="246.96" y1="52.52" x2="189.96" y2="23.21"/><line class="cls-16" x1="248.27" y1="48.3" x2="191.28" y2="18.99"/><line class="cls-16" x1="243.02" y1="65.18" x2="186.02" y2="35.87"/><line class="cls-16" x1="241.7" y1="69.4" x2="184.71" y2="40.09"/><line class="cls-16" x1="235.14" y1="90.5" x2="178.14" y2="61.19"/><line class="cls-16" x1="233.82" y1="94.71" x2="176.83" y2="65.41"/><line class="cls-16" x1="232.51" y1="98.94" x2="175.51" y2="69.63"/></g><path class="cls-17" d="M195.88,85.57l-44.7,87.32c-1.25,2.46,2.45,4.63,3.71,2.17l44.7-87.32c1.25-2.46-2.45-4.63-3.71-2.17Z" transform="translate(0 0)"/><path class="cls-12" d="M169.77,131.89c-7.05,13.19-13.11,26.88-20.44,39.92-2.71,4.83,4.7,9.15,7.41,4.33,7.33-13,13.39-26.73,20.44-39.92,2.6-4.88-4.8-9.21-7.41-4.33Z" transform="translate(0 0)"/><path class="cls-12" d="M224.19,28.9c-13.82-4.35-27.05.7-34.94,12.72-6.86,10.45-8.64,25.29-2.31,36.36,7.64,13.34,28.15,15.72,40,7,8-5.9,12.68-17.4,13.93-26.92,1.15-8.82-.8-17.4-7.33-23.7a24.46,24.46,0,0,0-9.32-5.42c-2.11-.7-3,2.61-.91,3.31,19.62,6.49,15.87,30.53,6.82,44.35-8.68,13.24-31,13.64-39.8.32-6.29-9.49-4.23-22.74,1.06-32.14C198,33,210.52,28.19,223.28,32.21c2.11.66,3-2.65.91-3.31Z" transform="translate(0 0)"/><path class="cls-6" d="M167.13,157.25c-3.64,10-7.28,52.61,2,56.23,17.07,6.21,35.52-10.09,49.85-23L203.5,178.75c-9.94,5.24-15,10.82-23.4,18.05,2.07-12.29-2.79-24.94-3.68-39.55" transform="translate(0 0)"/><g class="cls-7"><path class="cls-8" d="M213.24,186.14c-6,5.56-11.88,11.16-18.63,15.78-5.38,3.68-13.8,9.42-20.76,7.34-3-.9-3.44-3.17-4-6.19a71.91,71.91,0,0,1-1.3-18.56c0-.86,0-1.71.06-2.56-.09-1.19-.16-2.37-.22-3.56-.16-3.28.53-9.35-3.62-10.08-2.29,16.32-2.83,42.37,4.37,45.17,17.07,6.21,35.52-10.09,49.85-23Z" transform="translate(0 0)"/></g><path class="cls-6" d="M175.86,161.78c2.3-12.7,1.37-26.57-1.21-21.53-2.44,3.66-5.2,10.1-7,13.76-1.83,2.45-5.57,4-4.35,8.83,0,1.83,5.6,2.34,7.43,2.95" transform="translate(0 0)"/><path class="cls-6" d="M167,135.28c-6.1,0-14.87,17.52-8.15,18.73,6.1.62,13.18-17.32,8.15-18.73" transform="translate(0 0)"/><path class="cls-6" d="M357,106.52c-10.86,5.2-33.18,30.42-33.18,30.42-15.51,4.61-20.62,2.69-38.73,13l3.57,19.46C300.75,168,330.83,151,330.83,151c11.12-10.6,22.06-24.7,31.66-38.32" transform="translate(0 0)"/><path class="cls-6" d="M350.67,112.1c1.25-6.32,5.25-22.32,7.93-17.08.25,2.11.61,3.66.61,4.88,4.88-4.27,11.38-14.85,14-13.42.46.62-.59,2.56-4,7.9,2.44-1.22,7.16-5.45,8.87-3.63,1.08,1.21-3.89,4.49-7.05,7.51,3.64-1.57,8.13-4.72,9.58-2.54,1.17,1.45-5.21,4.72-5.82,5.94,2.12-.34,6.19-3.15,6.95-1.15.93,2.73-18.18,14-24.89,16.47" transform="translate(0 0)"/><g class="cls-7"><path class="cls-8" d="M354.13,116.84c-4.26,4.78-8.89,9.24-13.15,14-5.34,6-10.57,12.08-17,17-10.7,8.12-23.68,11.81-36.68,14.49l1.31,7.13C300.75,168,330.83,151,330.83,151c9.06-8.63,18-19.58,26.18-30.71C356,119.14,355,118,354.13,116.84Z" transform="translate(0 0)"/></g><path class="cls-18" d="M347.79,110.15c4.49,3.7,8.73,7.27,11.89,9.58" transform="translate(0 0)"/><path class="cls-11" d="M195.42,181.83c25.06-26.7,66.77-32.76,93.12-37.29,2.07,4.45,7.37,29.23,7.37,29.23L279.23,177c5.27,6,4.06,17.68-1.55,21.55-4.34,3-.52,40.07,2.59,60.1-8.86,5.87-56.88,8.78-63.38-6.68,0,0,10.61-20.59,12.16-27.82,2.58-9.47,2.52-25-.07-34.49-7.24,3.89-18.75,12.64-18.75,12.64-5.17-3.9-11.7-14.33-14.81-20.45" transform="translate(0 0)"/><g class="cls-19"><path class="cls-10" d="M229,189.64a22.62,22.62,0,0,0,.56-9.24c-1-6.52-4-12.32-7.88-17.56a91.44,91.44,0,0,0-26.24,19c3.11,6.12,9.64,16.55,14.81,20.45,0,0,11.51-8.75,18.75-12.64C229.07,189.94,228.9,189.32,229,189.64Z" transform="translate(0 0)"/></g><g class="cls-19"><path class="cls-10" d="M276,171.76c1.42,2.22,1.8,3.24,3.26,5.22l16.68-3.21s-5.3-24.78-7.37-29.23c-6.6,1.14-14.18,2.37-22.21,4C266.19,157.65,271,164.1,276,171.76Z" transform="translate(0 0)"/></g><path class="cls-10" d="M192.4,182.87c4.92,6.69,10.36,13,14.64,20.13,1.6,2.68,5.79.24,4.18-2.45-4.27-7.15-9.71-13.44-14.64-20.13-1.83-2.49-6-.07-4.18,2.45Z" transform="translate(0 0)"/><path class="cls-10" d="M286.71,145.32c1.88,9.62,4.77,19,7.32,28.43.82,3,5.49,1.73,4.68-1.29-2.55-9.45-5.44-18.81-7.32-28.42-.6-3.07-5.28-1.77-4.68,1.28Z" transform="translate(0 0)"/><path class="cls-10" d="M214.13,255.1c8,8.76,20.26,11.12,31.61,11.52a91,91,0,0,0,35.41-5.77c2.88-1.12,1.63-5.81-1.29-4.68a89.78,89.78,0,0,1-30.3,5.61c-11.15.28-24.1-1.43-32-10.11-2.11-2.32-5.53,1.12-3.43,3.43Z" transform="translate(0 0)"/><g class="cls-19"><path class="cls-10" d="M247.57,210.32s.34.16.91.47c.29.15.64.34,1,.57s.83.5,1.31.75,1,.52,1.54.83l.82.45.89.43c.61.29,1.22.61,1.86.89l2,.82c.65.28,1.34.47,2,.72s1.31.46,2,.65,1.26.43,1.87.58,1.17.33,1.69.5c1.05.32,1.94.57,2.55.79s1,.34,1,.34-.37,0-1,0-1.58,0-2.69-.07c-.55-.05-1.16-.1-1.79-.18a18.84,18.84,0,0,1-2-.34,16.58,16.58,0,0,1-2.11-.51c-.71-.23-1.44-.43-2.14-.71l-2.06-.93c-.67-.33-1.27-.75-1.88-1.1-.3-.19-.6-.36-.88-.55l-.79-.62c-.52-.39-1-.78-1.42-1.14a12.38,12.38,0,0,1-1.09-1.06c-.32-.32-.58-.61-.8-.85C247.81,210.61,247.57,210.32,247.57,210.32Z" transform="translate(0 0)"/></g><g class="cls-19"><path class="cls-10" d="M247.57,220.69s.3.09.8.28,1.22.51,2.06.81c.42.15.88.32,1.34.52s1,.32,1.5.53a15.78,15.78,0,0,0,1.6.53c.55.15,1.1.36,1.66.49s1.13.27,1.69.42,1.11.23,1.65.34,1.06.23,1.56.28,1,.15,1.43.23.85.1,1.21.16.69.09,1,.14c.53.08.84.15.84.15s-.3.1-.82.23c-.26.06-.58.15-.95.22a8.26,8.26,0,0,1-1.26.21c-.46,0-1,.08-1.5.1a7.92,7.92,0,0,1-1.68,0,16.13,16.13,0,0,1-1.8-.18l-1.84-.39c-.6-.16-1.19-.39-1.77-.6a11.77,11.77,0,0,1-1.65-.73,15.84,15.84,0,0,1-1.48-.81c-.45-.29-.87-.59-1.25-.86a7,7,0,0,1-1-.78c-.29-.24-.52-.47-.72-.66C247.78,220.92,247.57,220.69,247.57,220.69Z" transform="translate(0 0)"/></g><path class="cls-2" d="M238.93,186l8.67-2c1.26-.29.72-2.22-.53-1.93l-8.67,2c-1.26.29-.72,2.22.53,1.93Z" transform="translate(0 0)"/><path class="cls-13" d="M238,183.2l8.67-2c1.57-.36.9-2.77-.67-2.41l-8.67,2c-1.57.36-.9,2.77.67,2.41Z" transform="translate(0 0)"/><path class="cls-6" d="M244.05,111c5.17,4.66,20.76,18.69,20.24,25.93s-7.82,5.11-10.41,10.8c-1.55,2.59,0,9.83,0,12.93a41.25,41.25,0,0,1-12.42.46c-5.72-.84-4.6-1.63-4.65-6.73-.08-7.48,1-5.11-6.21-8.21-4.14-1.55-7.24-.52-10.35-5.69-7.76-13.45,6.05-39.66,23.8-29.49" transform="translate(0 0)"/><path class="cls-6" d="M251.52,118.76c3.15.72,4.26.58,9,1.69,2.19.73-2.18,4.85-3.88,6.79" transform="translate(0 0)"/><g class="cls-7"><path class="cls-8" d="M250.67,144.79c-5,.64-5,.64-9.79-.28-3.72-.71.38,8.91,1,11.74a24.59,24.59,0,0,1,.48,4.95,43.54,43.54,0,0,0,11.55-.56c0-3.1-1.55-10.34,0-12.93a7.56,7.56,0,0,1,3.38-3.52A50.75,50.75,0,0,0,250.67,144.79Z" transform="translate(0 0)"/></g><path class="cls-12" d="M247.88,126.88a1.82,1.82,0,0,0,0-3.64,1.82,1.82,0,0,0,0,3.64Z" transform="translate(0 0)"/><path class="cls-12" d="M257.1,130.88a3.1,3.1,0,0,1,.45.75,4.47,4.47,0,0,1,.34,1.67,3.9,3.9,0,0,1-.18,1.63,3.3,3.3,0,0,1-.37.8,2.84,2.84,0,0,1-.5-.71,4.52,4.52,0,0,1-.48-1.69,4.38,4.38,0,0,1,.31-1.68A2.86,2.86,0,0,1,257.1,130.88Z" transform="translate(0 0)"/><path class="cls-12" d="M243.24,119.9a13.67,13.67,0,0,0-2,6.62c-.08.77,1.13.76,1.22,0a12.29,12.29,0,0,1,1.85-6c.46-.64-.6-1.25-1-.62Z" transform="translate(0 0)"/><path class="cls-12" d="M231.39,122.64c14.07-2.91,21.83-14.07,21.34-28.62-6.3,8.49-22.06,2.91-30.07,9.46a14.65,14.65,0,0,0-2.91,19.4c-7,1-6.9,10.83-4.12,16,3.39,6.31,14.91,11,21,10.07-2.18-5.09-7.15-11.52,3-9.34-4.12-5.58-7.52-9.7-8.25-17" transform="translate(0 0)"/><path class="cls-12" d="M214.9,130.39a10.4,10.4,0,0,0-13.58-6.06c-5.82,2.19-8.73,9.7-15.28,11.16,2.67,5.33,9.46,8.49,15.28,6.55,5.58-1.7,7-10.43,13.83-9" transform="translate(0 0)"/><path class="cls-9" d="M233.19,112.71c-.88,11.1-6.59,21.81-13.93,30-2.08,2.32,1.34,5.76,3.43,3.43,8.25-9.22,14.37-21,15.35-33.44.25-3.12-4.61-3.1-4.85,0Z" transform="translate(0 0)"/><path class="cls-12" d="M231.39,122.64c14.07-2.91,21.83-14.07,21.34-28.62-6.3,8.49-22.06,2.91-30.07,9.46a14.65,14.65,0,0,0-2.91,19.4" transform="translate(0 0)"/><path class="cls-17" d="M234.91,105.42l1.14-.13,1.11-.21c.73-.17,1.46-.37,2.18-.59l2.18-.69c.74-.22,1.49-.42,2.26-.6a.64.64,0,0,1,.75.48.65.65,0,0,1,0,.39v0l-.32.73-.42.68a9.49,9.49,0,0,1-1,1.19,13.62,13.62,0,0,1-1.18,1q-.62.43-1.26.81c-1.7,1-3.49,1.72-5,2.6l-.39-1.75,2.07,0c.7,0,1.39-.1,2.09-.13l2.07-.29,2.06-.44.1,0a.9.9,0,0,1,1.08.69.92.92,0,0,1-.19.77l-.78.94-.86.87-.93.78-1,.69-1.05.6-1.09.5a17.8,17.8,0,0,1-2.23.77c-.76.2-1.53.36-2.29.49s-1.54.19-2.31.24-1.54,0-2.3,0-1.53-.07-2.29-.14c.76-.08,1.51-.19,2.26-.28s1.5-.24,2.23-.37,1.47-.33,2.19-.51,1.42-.43,2.11-.69l1-.41,1-.47.94-.53.9-.59.85-.66.78-.71.71-.79.63-.84,1,1.44-2.18.5-2.22.34c-.75.06-1.5.11-2.26.14l-2.26-.09a.94.94,0,0,1-.9-1,1,1,0,0,1,.48-.77l0,0c1.76-1,3.54-1.61,5.16-2.46.4-.21.79-.43,1.17-.67a11.5,11.5,0,0,0,1.07-.76,7.65,7.65,0,0,0,.9-.9l.37-.52.3-.54.7.88c-.73.09-1.47.2-2.21.34s-1.5.28-2.25.41l-1.15.17-1.15.1-1.17,0Z" transform="translate(0 0)"/><path class="cls-10" d="M233.56,159c6.73,7.11,23.65,7.89,25.63-4,.51-3.06-4.16-4.37-4.67-1.29-1.35,8.08-13.18,6.44-17.53,1.84-2.16-2.28-5.58,1.16-3.43,3.43Z" transform="translate(0 0)"/><path class="cls-9" d="M321.66,62.77l17.09-6.89c.43-.17.24-.87-.19-.7l-17.1,6.89c-.43.17-.24.87.2.7Z" transform="translate(0 0)"/><path class="cls-9" d="M322.26,64.27l17.4-6.14c.44-.15.25-.85-.2-.7l-17.39,6.14c-.44.15-.25.85.19.7Z" transform="translate(0 0)"/><path class="cls-9" d="M321.14,61.23l16.79-7.63c.43-.2.06-.82-.37-.63l-16.79,7.64c-.42.19,0,.82.37.62Z" transform="translate(0 0)"/><path class="cls-9" d="M320.53,59.73,337,51.35c.41-.21.05-.84-.37-.63L320.17,59.1c-.42.22-.05.84.36.63Z" transform="translate(0 0)"/><path class="cls-9" d="M322.86,65.77l17.7-5.39c.45-.13.26-.84-.19-.7l-17.7,5.39c-.45.13-.26.84.19.7Z" transform="translate(0 0)"/><path class="cls-9" d="M321.56,62.42l16.73-7.79a1,1,0,0,1,.82,1.77l-.09,0Z" transform="translate(0 0)"/><path class="cls-9" d="M322.16,63.92l17.08-7.05a1,1,0,1,1,.74,1.79l-.1,0Z" transform="translate(0 0)"/><path class="cls-9" d="M321,60.92l16.39-8.52a1,1,0,0,1,.89,1.73l-.09,0Z" transform="translate(0 0)"/><path class="cls-9" d="M320.35,59.42l16-9.25a1,1,0,0,1,1.33.36,1,1,0,0,1-.36,1.32l-.09,0Z" transform="translate(0 0)"/><path class="cls-9" d="M322.77,65.42l17.41-6.32a1,1,0,0,1,.67,1.83l-.1,0Z" transform="translate(0 0)"/><path class="cls-9" d="M325.82,64.89l-2.47,1a3.88,3.88,0,0,1-5.05-2.15h0a3.88,3.88,0,0,1,2.15-5l2.47-1" transform="translate(0 0)"/><rect class="cls-13" x="322.47" y="57.1" width="2.91" height="8.73" transform="translate(0.49 125.46) rotate(-21.94)"/></g><g id="DESIGNED_BY_FREEPIK" data-name="DESIGNED BY FREEPIK"><path class="cls-4" d="M260.1,465.47a7.3,7.3,0,0,0-1.1,1.45l-.47-.24a.61.61,0,0,0-.66-.47.6.6,0,0,0,.14,1.2.48.48,0,0,0,.18-.05l.46.23a7.1,7.1,0,0,0-.54,1.75l.74.13a6.58,6.58,0,0,1,1.8-3.48Z" transform="translate(0 0)"/><path class="cls-4" d="M265.59,463.16l-.51,0-.07-.62a.75.75,0,0,0,.26-.65.72.72,0,1,0-1.42.17.71.71,0,0,0,.41.56l.07.63a7.47,7.47,0,0,0-2.06.64l.33.69a6.82,6.82,0,0,1,3-.68,7.37,7.37,0,0,1,1.48.16l.16-.74A7.56,7.56,0,0,0,265.59,463.16Z" transform="translate(0 0)"/><path class="cls-4" d="M272.19,465.71a.6.6,0,1,0-.67-.59l-.42.36a7.77,7.77,0,0,0-1.41-1.13l-.4.64a6.7,6.7,0,0,1,2.56,2.92l.69-.31a7.14,7.14,0,0,0-.94-1.54l.4-.36A.41.41,0,0,0,272.19,465.71Z" transform="translate(0 0)"/><path class="cls-4" d="M265,473.37c-.38,0-.77,0-1.15,0a15.87,15.87,0,0,1-2.48-.18,9.19,9.19,0,0,1-1.27-.29,6.2,6.2,0,0,0,11.34-1.38,10,10,0,0,1-2.46,1.12A16.69,16.69,0,0,1,265,473.37Z" transform="translate(0 0)"/><path class="cls-4" d="M265.59,464.68a5.93,5.93,0,0,0-5.94,7.21c.67.48,2.7.89,5.35.73a11.55,11.55,0,0,0,6.67-2.16,5.44,5.44,0,0,0-.05-.58A6,6,0,0,0,265.59,464.68Zm-2.16,6.52a1.86,1.86,0,1,1,1.85-1.85A1.85,1.85,0,0,1,263.43,471.2Zm4.74-.91a1.36,1.36,0,1,1,1.36-1.36A1.36,1.36,0,0,1,268.17,470.29Z" transform="translate(0 0)"/><path class="cls-4" d="M281.6,466.55a2.82,2.82,0,0,0-1.39-.24c-.55.07-.84.34-.84,1v.86h2.23v1.72h-2.23v5.45h-1.93V469.9H276.1v-1.72h1.34v-.89a2.46,2.46,0,0,1,2.57-2.78,3.91,3.91,0,0,1,1.59.31Z" transform="translate(0 0)"/><path class="cls-4" d="M286.3,469.88a3.27,3.27,0,0,0-.53-.05,1.44,1.44,0,0,0-1.51,1.62v3.9h-1.93v-7.17h1.87V469a2.25,2.25,0,0,1,2-1,1.8,1.8,0,0,1,1.1.34Z" transform="translate(0 0)"/><path class="cls-4" d="M294,471.76a6.18,6.18,0,0,1,0,.65h-5.09a1.73,1.73,0,0,0,1.85,1.49,2.94,2.94,0,0,0,1.81-.69l1.13,1.24a4.34,4.34,0,0,1-3.06,1.09,3.78,3.78,0,0,1-.09-7.55A3.46,3.46,0,0,1,294,471.76Zm-5.11-.67H292a1.55,1.55,0,0,0-1.56-1.44A1.56,1.56,0,0,0,288.85,471.09Z" transform="translate(0 0)"/><path class="cls-4" d="M301.62,471.76a6,6,0,0,1,0,.65H296.5a1.72,1.72,0,0,0,1.84,1.49,2.94,2.94,0,0,0,1.81-.69l1.13,1.24a4.31,4.31,0,0,1-3,1.09,3.78,3.78,0,0,1-.1-7.55A3.47,3.47,0,0,1,301.62,471.76Zm-5.12-.67h3.18a1.6,1.6,0,0,0-3.18,0Z" transform="translate(0 0)"/><path class="cls-4" d="M310,471.76a3.55,3.55,0,0,1-3.47,3.78,2.65,2.65,0,0,1-2.11-.93v3.7h-1.92V468.18h1.89v.8a2.57,2.57,0,0,1,2.13-1A3.55,3.55,0,0,1,310,471.76Zm-5.67,0a1.85,1.85,0,1,0,1.84-2A1.84,1.84,0,0,0,304.29,471.76Z" transform="translate(0 0)"/><path class="cls-4" d="M313.07,465.84a1.24,1.24,0,1,1-1.24-1.25A1.23,1.23,0,0,1,313.07,465.84Zm-.26,9.51h-1.93v-7.17h1.93Z" transform="translate(0 0)"/><path class="cls-4" d="M316,470.74l2.7-2.56h2.37l-3.48,3.38,3.5,3.79h-2.37l-2.72-2.9v2.9H314.1V464.7H316Z" transform="translate(0 0)"/><path class="cls-4" d="M184.41,475.29v-1.06a3,3,0,0,1-2.39,1.24c-1.84,0-3.15-1.41-3.15-3.71S180.16,468,182,468a3,3,0,0,1,2.39,1.24v-3.76h1.1v9.77Zm0-1.92v-3.21a2.65,2.65,0,0,0-2.12-1.14c-1.42,0-2.27,1.17-2.27,2.74s.85,2.72,2.27,2.72A2.6,2.6,0,0,0,184.41,473.37Z" transform="translate(0 0)"/><path class="cls-4" d="M186.93,471.74a3.54,3.54,0,0,1,3.49-3.7c2.14,0,3.4,1.67,3.4,3.79v.28h-5.73a2.5,2.5,0,0,0,2.55,2.45,3.11,3.11,0,0,0,2.18-.9l.53.72a3.88,3.88,0,0,1-2.82,1.09A3.51,3.51,0,0,1,186.93,471.74ZM190.4,469a2.35,2.35,0,0,0-2.31,2.36h4.64A2.29,2.29,0,0,0,190.4,469Z" transform="translate(0 0)"/><path class="cls-4" d="M194.61,474.35l.57-.79a3.21,3.21,0,0,0,2.33,1c1.08,0,1.67-.51,1.67-1.21,0-1.72-4.38-.66-4.38-3.29,0-1.09.95-2,2.63-2a3.62,3.62,0,0,1,2.63,1l-.52.77a2.73,2.73,0,0,0-2.11-.9c-1,0-1.56.49-1.56,1.12,0,1.55,4.38.52,4.38,3.28,0,1.18-1,2.14-2.79,2.14A3.76,3.76,0,0,1,194.61,474.35Z" transform="translate(0 0)"/><path class="cls-4" d="M201.48,466.47a.74.74,0,0,1,.73-.74.75.75,0,0,1,.75.74.74.74,0,0,1-.75.73A.73.73,0,0,1,201.48,466.47Zm.19,8.82v-7.07h1.1v7.07Z" transform="translate(0 0)"/><path class="cls-4" d="M204.58,477.11l.56-.82a2.7,2.7,0,0,0,2.3,1,2,2,0,0,0,2.27-2.12v-1a3,3,0,0,1-2.37,1.26c-1.85,0-3.15-1.38-3.15-3.66s1.28-3.68,3.15-3.68a2.94,2.94,0,0,1,2.37,1.24v-1.06h1.1v6.86c0,2.35-1.64,3.08-3.37,3.08A3.63,3.63,0,0,1,204.58,477.11Zm5.13-3.86v-3.09A2.62,2.62,0,0,0,207.6,469c-1.42,0-2.27,1.13-2.27,2.7s.85,2.69,2.27,2.69A2.61,2.61,0,0,0,209.71,473.25Z" transform="translate(0 0)"/><path class="cls-4" d="M217.41,475.29v-4.63c0-1.24-.63-1.64-1.58-1.64a2.73,2.73,0,0,0-2.09,1.1v5.17h-1.1v-7.07h1.1v1a3.47,3.47,0,0,1,2.52-1.2,2,2,0,0,1,2.25,2.28v5Z" transform="translate(0 0)"/><path class="cls-4" d="M219.93,471.74a3.54,3.54,0,0,1,3.49-3.7c2.14,0,3.4,1.67,3.4,3.79v.28h-5.73a2.5,2.5,0,0,0,2.55,2.45,3.11,3.11,0,0,0,2.18-.9l.53.72a3.88,3.88,0,0,1-2.82,1.09A3.51,3.51,0,0,1,219.93,471.74ZM223.4,469a2.35,2.35,0,0,0-2.31,2.36h4.64A2.28,2.28,0,0,0,223.4,469Z" transform="translate(0 0)"/><path class="cls-4" d="M233.35,475.29v-1.06a3,3,0,0,1-2.39,1.24c-1.84,0-3.15-1.41-3.15-3.71S229.1,468,231,468a3,3,0,0,1,2.39,1.24v-3.76h1.1v9.77Zm0-1.92v-3.21a2.68,2.68,0,0,0-2.12-1.14c-1.43,0-2.28,1.17-2.28,2.74s.85,2.72,2.28,2.72A2.63,2.63,0,0,0,233.35,473.37Z" transform="translate(0 0)"/><path class="cls-4" d="M239.69,475.29v-9.77h1.1v3.76a3,3,0,0,1,2.39-1.24c1.84,0,3.15,1.46,3.15,3.72s-1.31,3.71-3.15,3.71a3,3,0,0,1-2.39-1.24v1.06Zm3.21-.81c1.44,0,2.29-1.15,2.29-2.72s-.85-2.74-2.29-2.74a2.63,2.63,0,0,0-2.11,1.14v3.21A2.58,2.58,0,0,0,242.9,474.48Z" transform="translate(0 0)"/><path class="cls-4" d="M247.53,477.06a1.53,1.53,0,0,0,.6.12,1,1,0,0,0,1.05-.75l.47-1.07-3-7.14h1.19l2.36,5.8,2.34-5.8h1.2l-3.54,8.51a2.1,2.1,0,0,1-2.08,1.43,3.52,3.52,0,0,1-.81-.1Z" transform="translate(0 0)"/></g></svg>